<?xml version="1.0" encoding="utf-8"?>
<!-- Generator: Adobe Illustrator 27.9.0, SVG Export Plug-In . SVG Version: 6.00 Build 0)  -->
<svg version="1.1" id="圖層_1" xmlns="http://www.w3.org/2000/svg" xmlns:xlink="http://www.w3.org/1999/xlink" x="0px" y="0px"
	 viewBox="0 0 48 48" style="enable-background:new 0 0 48 48;" xml:space="preserve">
<style type="text/css">
	.st0{fill:none;}
</style>
<path class="st0" d="M0-0.5h48v48H0V-0.5z"/>
<path id="XMLID_222_" d="M10.4,24c0,0.6,0.2,1.1,0.6,1.5l21.8,21.8c0.4,0.4,1,0.6,1.5,0.6c0.6,0,1.1-0.2,1.5-0.6
	c0.9-0.9,0.9-2.2,0-3.1L15.6,24L35.9,3.7c0.9-0.9,0.9-2.2,0-3.1c-0.9-0.9-2.2-0.9-3.1,0L11,22.4C10.6,22.8,10.4,23.4,10.4,24z"/>
</svg>
